<svg xmlns="http://www.w3.org/2000/svg" version="1.0" width="72" height="57" preserveAspectRatio="xMidYMid meet" style=""><rect id="backgroundrect" width="100%" height="100%" x="0" y="0" fill="none" stroke="none" class="" style=""/>


<g class="currentLayer" style=""><title>Layer 1</title>


<g class="" fill-opacity="1" fill="#0d6efd" id="svg_1"><path d="M38.2717177657346,-0.1476697152975519 c-0.5882005609067265,0.08037906084495058 -1.3868582032387957,0.24113718253485164 -1.8617357203011076,0.36479727614246776 c-5.077951631314033,1.360261029683778 -9.173770215976472,6.077893600814333 -10.307000654420627,11.865185981650766 c-0.2967984481639448,1.5333851607344409 -0.31298745442743264,1.7374243151870077 -0.33457279611208335,5.3977630859724455 l-0.026981677105813257,3.4192015882505875 l-3.4482583341229196,0 l-3.4482583341229196,0 l0,5.935684493165574 l0,5.935684493165574 l1.1602121155499652,0 l1.1602121155499652,0 l0,-4.606338486883701 l0,-4.606338486883701 l18.40150378616457,0 l18.40150378616457,0 l0,15.828491981774864 l0,15.828491981774864 l-18.40150378616457,0 l-18.40150378616457,0 l-0.010792670842325295,-4.624887500924844 l-0.016189006263487928,-4.618704496244463 l-1.14941944470764,-0.018549014041142457 l-1.1440231092864774,-0.01236600936076166 l0,5.935684493165574 l0,5.935684493165574 l20.7219280172645,0 l20.7219280172645,0 l0,-18.456268970936712 l0,-18.456268970936712 l-3.4482583341229196,0 l-3.4482583341229196,0 l-0.026981677105813257,-3.4192015882505875 c-0.021585341684650584,-3.610874733342391 -0.032378012526975856,-3.7716328550322937 -0.31838378984859533,-5.298835011086352 c-0.14570105637139108,-0.7852415944083627 -0.5666152192220767,-2.232064689617472 -0.8742063382283459,-3.0173062840258353 c-1.6728639805604142,-4.247724215421615 -4.9214579041003175,-7.469069653900015 -8.82840474902206,-8.761317632099603 c-1.2357608114462426,-0.40807830890513336 -2.0614001308841243,-0.5379214071931309 -3.561581377967337,-0.5564704212342728 c-0.7285052818569546,-0.01236600936076166 -1.4084435449234465,-0.0061830046803808495 -1.5109739179255361,0.0061830046803808495 zm2.9140211274278203,2.7205220593675556 c3.739660446865702,0.5873854446361771 7.026028718353744,3.332639522725255 8.720478040598813,7.289762518168972 c0.5558225483797509,1.2922479781995888 0.94435869870346,2.8070841248928864 1.100852425917176,4.297188252864661 c0.026981677105813257,0.2906012199778984 0.053963354211626416,1.8858164275161464 0.053963354211626416,3.629423747383535 l0,3.110051354231546 l-11.494194447076401,0 l-11.494194447076401,0 l0,-3.110051354231546 c0,-1.7436073198673878 0.026981677105813257,-3.3388225274056382 0.053963354211626416,-3.629423747383535 c0.33457279611208335,-3.12860036827269 1.5541446012948383,-5.929501488485195 3.534599700861523,-8.093553126618476 c2.547070318788761,-2.782352106171365 5.995328652911683,-4.043685060969048 9.524532018352042,-3.493397644415157 z" id="svg_2" class="" fill="#0d6efd" fill-opacity="1"/><path d="M26.210908099436132,31.966856594600205 l-0.8094503131743946,0.9274507020571211 l2.2394791997824917,2.565946942358036 l2.2394791997824917,2.565946942358036 l-10.11812891467993,0.01236600936076166 l-10.11812891467993,0.018549014041142457 l-0.016189006263487928,1.3107969922407312 l-0.010792670842325295,1.3169799969211127 l10.128921585522258,0 l10.134317920943415,0 l-2.2394791997824917,2.565946942358036 l-2.2394791997824917,2.565946942358036 l0.8094503131743946,0.9274507020571211 l0.8094503131743946,0.9274507020571211 l3.631733738442451,-4.161162149896285 l3.6263374030212874,-4.154979145215902 l-3.631733738442451,-4.161162149896285 l-3.6263374030212874,-4.154979145215902 l-0.8094503131743946,0.9274507020571211 z" id="svg_3" class="" fill="#0d6efd" fill-opacity="1"/></g></g></svg>